<svg width="160" height="160" viewBox="0 0 160 160" fill="none" xmlns="http://www.w3.org/2000/svg">
  <rect width="160" height="160" fill="none"/>
  <path d="M48 38H60V50H48V38Z" fill="#6A3D20"/>
  <path d="M100 38H112V50H100V38Z" fill="#6A3D20"/>
  <path d="M36 50H48V62H36V50Z" fill="#6A3D20"/>
  <path d="M112 50H124V62H112V50Z" fill="#6A3D20"/>
  <path d="M48 50H60V62H48V50Z" fill="#F2A96C"/>
  <path d="M60 50H72V62H60V50Z" fill="#F2A96C"/>
  <path d="M72 50H84V62H72V50Z" fill="#F5C28D"/>
  <path d="M84 50H96V62H84V50Z" fill="#F2A96C"/>
  <path d="M96 50H108V62H96V50Z" fill="#F2A96C"/>
  <path d="M36 62H48V74H36V62Z" fill="#F2A96C"/>
  <path d="M48 62H60V74H48V62Z" fill="#F8E6D2"/>
  <path d="M60 62H72V74H60V62Z" fill="#F8E6D2"/>
  <path d="M72 62H84V74H72V62Z" fill="#F8E6D2"/>
  <path d="M84 62H96V74H84V62Z" fill="#F8E6D2"/>
  <path d="M96 62H108V74H96V62Z" fill="#F8E6D2"/>
  <path d="M108 62H120V74H108V62Z" fill="#F2A96C"/>
  <path d="M24 74H36V86H24V74Z" fill="#F2A96C"/>
  <path d="M36 74H48V86H36V74Z" fill="#F8E6D2"/>
  <path d="M48 74H60V86H48V74Z" fill="#F8E6D2"/>
  <path d="M60 74H72V86H60V74Z" fill="#F8E6D2"/>
  <path d="M72 74H84V86H72V74Z" fill="#F8E6D2"/>
  <path d="M84 74H96V86H84V74Z" fill="#F8E6D2"/>
  <path d="M96 74H108V86H96V74Z" fill="#F8E6D2"/>
  <path d="M108 74H120V86H108V74Z" fill="#F8E6D2"/>
  <path d="M120 74H132V86H120V74Z" fill="#F2A96C"/>
  <path d="M24 86H36V98H24V86Z" fill="#F2A96C"/>
  <path d="M36 86H48V98H36V86Z" fill="#F8E6D2"/>
  <path d="M48 86H60V98H48V86Z" fill="#6A3D20"/>
  <path d="M60 86H72V98H60V86Z" fill="#F8E6D2"/>
  <path d="M72 86H84V98H72V86Z" fill="#F8E6D2"/>
  <path d="M84 86H96V98H84V86Z" fill="#F8E6D2"/>
  <path d="M96 86H108V98H96V86Z" fill="#6A3D20"/>
  <path d="M108 86H120V98H108V86Z" fill="#F8E6D2"/>
  <path d="M120 86H132V98H120V86Z" fill="#F2A96C"/>
  <path d="M36 98H48V110H36V98Z" fill="#F2A96C"/>
  <path d="M48 98H60V110H48V98Z" fill="#F8E6D2"/>
  <path d="M60 98H72V110H60V98Z" fill="#F8E6D2"/>
  <path d="M72 98H84V110H72V98Z" fill="#E79A6E"/>
  <path d="M84 98H96V110H84V98Z" fill="#F8E6D2"/>
  <path d="M96 98H108V110H96V98Z" fill="#F8E6D2"/>
  <path d="M108 98H120V110H108V98Z" fill="#F2A96C"/>
  <path d="M48 110H60V122H48V110Z" fill="#F2A96C"/>
  <path d="M60 110H72V122H60V110Z" fill="#F8E6D2"/>
  <path d="M72 110H84V122H72V110Z" fill="#F8E6D2"/>
  <path d="M84 110H96V122H84V110Z" fill="#F8E6D2"/>
  <path d="M96 110H108V122H96V110Z" fill="#F2A96C"/>
  <path d="M60 122H72V134H60V122Z" fill="#F2A96C"/>
  <path d="M72 122H84V134H72V122Z" fill="#F2A96C"/>
  <path d="M84 122H96V134H84V122Z" fill="#F2A96C"/>
  <path d="M108 98H120V110H108V98Z" fill="#F2A96C"/>
  <path d="M108 110H120V122H108V110Z" fill="#F2A96C"/>
  <path d="M120 110H132V122H120V110Z" fill="#F2A96C"/>
  <path d="M120 122H132V134H120V122Z" fill="#F2A96C"/>
  <path d="M36 110H48V122H36V110Z" fill="#F2A96C"/>
  <path d="M24 110H36V122H24V110Z" fill="#F2A96C"/>
  <path d="M24 122H36V134H24V122Z" fill="#F2A96C"/>
  <path d="M42 54H50V62H42V54Z" fill="#6A3D20"/>
  <path d="M110 54H118V62H110V54Z" fill="#6A3D20"/>
  <path d="M58 74H66V82H58V74Z" fill="#2B1B17"/>
  <path d="M94 74H102V82H94V74Z" fill="#2B1B17"/>
  <path d="M74 86H82V94H74V86Z" fill="#D6808D"/>
  <path d="M66 94H74V98H66V94Z" fill="#6A3D20"/>
  <path d="M82 94H90V98H82V94Z" fill="#6A3D20"/>
  <path d="M54 84H58V88H54V84Z" fill="#D6808D"/>
  <path d="M102 84H106V88H102V84Z" fill="#D6808D"/>
</svg>
